<svg xmlns="http://www.w3.org/2000/svg" width="66.502" height="37.521" viewBox="0 0 66.502 37.521">
  <path id="Books-Icon-SVG-03_dfs" data-name="Books-Icon-SVG-03,,dfs" d="M62.751,36.521h-49A3.755,3.755,0,0,1,10,32.771v-6a3.715,3.715,0,0,1,.771-2.253H4.75A4.755,4.755,0,0,1,0,19.769v-3a4.753,4.753,0,0,1,4.743-4.748l.007,0h6.035A3.718,3.718,0,0,1,10,9.75v-6A3.754,3.754,0,0,1,13.751,0h51a.75.75,0,0,1,0,1.5h-1.62a9.275,9.275,0,0,0,0,10.5h1.62a.75.75,0,0,1,0,1.5h-9.9a.613.613,0,0,1-.1.02h-.62a7.805,7.805,0,0,0,0,9.5h.62l.01,0h9.992a.75.75,0,0,1,0,1.5h-1.62a9.275,9.275,0,0,0,0,10.5h1.62a.75.75,0,0,1,0,1.5Zm-47.946-1.5H61.342a11.042,11.042,0,0,1,0-10.5H14.805A19.925,19.925,0,0,1,14.805,35.021Zm-3.3-8.249v6a2.249,2.249,0,0,0,1.73,2.183,18.022,18.022,0,0,0,0-10.366A2.249,2.249,0,0,0,11.5,26.771ZM5.829,23.019H52.284a9.5,9.5,0,0,1,0-9.5H5.829A17,17,0,0,1,5.829,23.019ZM1.5,16.77v3a3.247,3.247,0,0,0,2.742,3.2,15.119,15.119,0,0,0,0-9.4A3.247,3.247,0,0,0,1.5,16.77ZM14.805,12H61.342a11.042,11.042,0,0,1,0-10.5H14.805A19.925,19.925,0,0,1,14.805,12ZM11.5,3.75v6a2.25,2.25,0,0,0,1.73,2.183,18.025,18.025,0,0,0,0-10.367A2.252,2.252,0,0,0,11.5,3.75Zm41.916,28.77a.75.75,0,0,1,0-1.5h2.5a.75.75,0,1,1,0,1.5Zm-20.123,0a.75.75,0,0,1,0-1.5H49.417a.75.75,0,0,1,0,1.5Zm-10-4a.75.75,0,0,1,0-1.5H46.917a.75.75,0,0,1,0,1.5Zm4-8a.75.75,0,1,1,0-1.5H45.917a.75.75,0,0,1,0,1.5Zm5.956-3.5a.75.75,0,0,1,0-1.5h2.667a.75.75,0,0,1,0,1.5Zm-16.958,0a.75.75,0,0,1,0-1.5H29.25a.75.75,0,0,1,0,1.5Zm17-7.52a.75.75,0,0,1,0-1.5H49.417a.75.75,0,0,1,0,1.5ZM53.417,7.84a.75.75,0,0,1,0-1.5h2.5a.75.75,0,0,1,0,1.5ZM23.293,5.5a.75.75,0,0,1,0-1.5H46.917a.75.75,0,0,1,0,1.5Z" transform="translate(0.5 0.5)" stroke="rgba(0,0,0,0)" stroke-miterlimit="10" stroke-width="1"/>
</svg>
